<?xml version="1.0" standalone="no"?>
<!DOCTYPE svg PUBLIC "-//W3C//DTD SVG 20010904//EN"
 "http://www.w3.org/TR/2001/REC-SVG-20010904/DTD/svg10.dtd">
<svg version="1.0" xmlns="http://www.w3.org/2000/svg"
 width="427.000000pt" height="427.000000pt" viewBox="0 0 427.000000 427.000000"
 preserveAspectRatio="xMidYMid meet">
<metadata>
Created by potrace 1.15, written by Peter Selinger 2001-2017
</metadata>
<g transform="translate(0.000000,427.000000) scale(0.100000,-0.100000)"
fill="#000000" stroke="none">
<path d="M1420 4228 c-41 -21 -83 -36 -92 -34 -10 2 -21 0 -24 -5 -3 -5 -15
-9 -28 -9 -21 0 -56 -27 -56 -43 0 -3 -24 -30 -53 -59 -29 -29 -66 -80 -83
-113 -27 -56 -29 -67 -27 -165 1 -90 26 -261 49 -339 6 -21 5 -22 -14 -12 -28
15 -42 14 -42 -4 0 -8 -3 -15 -8 -15 -11 0 -33 -80 -25 -93 4 -7 6 -19 5 -28
-2 -13 3 -15 22 -12 22 5 25 9 20 32 -4 14 -11 31 -16 37 -14 19 1 41 34 48
16 3 34 3 39 0 14 -9 10 -41 -6 -48 -24 -9 -18 -44 7 -48 18 -2 24 -13 33 -58
6 -30 18 -65 26 -77 11 -19 11 -27 1 -43 -10 -16 -10 -20 2 -20 8 0 22 -3 31
-7 14 -5 16 -2 10 18 -4 13 -10 26 -14 29 -3 3 -7 21 -8 40 0 19 -10 73 -22
120 -11 47 -23 124 -27 172 l-7 88 37 55 c39 59 43 70 23 62 -22 -8 -50 21
-56 60 -8 45 13 155 36 194 34 57 74 75 288 132 44 12 82 23 85 25 3 2 -6 11
-19 21 -17 13 -22 23 -16 39 4 13 2 22 -4 22 -6 0 -11 5 -11 11 0 6 7 8 17 5
9 -4 32 -1 51 5 29 9 37 9 46 -2 6 -8 18 -15 26 -16 8 -1 50 -14 93 -29 59
-20 75 -30 67 -39 -8 -9 -5 -14 11 -18 11 -3 23 -14 25 -24 3 -11 23 -30 45
-43 21 -14 39 -31 39 -38 0 -8 18 -32 40 -54 39 -40 47 -63 41 -125 -1 -12 7
-39 18 -60 10 -21 27 -69 36 -108 31 -125 56 -195 71 -195 19 0 18 29 -2 51
-23 26 -29 117 -11 162 9 20 13 37 9 37 -4 0 -8 36 -9 80 -1 58 2 78 10 73 7
-4 6 1 -2 10 -7 9 -11 23 -8 32 4 8 2 17 -3 20 -6 4 -10 15 -10 26 0 10 -4 19
-10 19 -5 0 -10 6 -10 14 0 33 -97 166 -133 184 -15 7 -27 17 -27 21 0 13 -41
27 -110 39 -36 6 -104 18 -151 27 -124 22 -162 18 -249 -27z"/>
<path d="M503 4158 c-30 -15 -43 -29 -47 -50 -3 -16 -12 -28 -21 -28 -9 0 -14
-4 -11 -8 3 -5 -9 -10 -27 -11 -18 -1 -37 -3 -44 -3 -7 -1 -38 -28 -70 -60
l-58 -59 153 2 c135 1 154 4 162 20 11 19 20 219 11 218 -3 0 -25 -10 -48 -21z"/>
<path d="M3925 4018 c4 -16 3 -19 -3 -9 -7 9 -12 10 -16 2 -4 -6 -1 -20 7 -32
21 -29 10 -56 -25 -63 -38 -8 -49 1 -24 19 17 13 16 14 -13 13 -17 -1 -31 -5
-31 -10 0 -4 -9 -8 -19 -8 -11 0 -23 -5 -27 -11 -4 -8 -9 -7 -15 2 -7 11 -10
9 -15 -8 -7 -26 -34 -32 -34 -8 0 8 -4 15 -10 15 -20 0 -3 -45 18 -48 12 -2
22 -8 22 -14 0 -5 -7 -7 -16 -4 -9 3 -22 6 -30 6 -8 0 -14 10 -15 23 l-1 22
-6 -23 c-4 -13 -11 -22 -17 -20 -14 4 -16 30 -4 45 13 15 3 33 -16 33 -8 0
-20 10 -26 22 -10 18 -14 19 -17 8 -8 -23 -31 -42 -42 -35 -6 4 -8 11 -5 16 4
5 -1 9 -9 9 -20 0 -21 -26 -1 -34 9 -3 15 -19 15 -41 0 -39 -7 -44 -25 -18
-11 14 -13 13 -19 -10 -3 -15 -11 -27 -17 -27 -6 0 -8 9 -4 21 6 19 4 21 -13
17 -12 -3 -23 -1 -25 5 -7 23 -27 -6 -28 -41 -1 -58 -20 -92 -23 -42 -2 23
-21 14 -25 -12 -1 -13 -8 -26 -14 -30 -7 -4 -7 -11 2 -22 10 -12 17 -14 27 -5
8 6 21 9 30 5 11 -4 14 -1 9 13 -3 10 -3 26 1 35 6 14 8 14 25 -5 11 -13 17
-30 14 -40 -6 -19 13 -30 67 -34 24 -2 38 1 42 11 9 23 23 16 29 -13 6 -31 -7
-73 -23 -73 -6 0 -8 5 -5 10 3 6 1 10 -6 10 -6 0 -17 7 -23 16 -9 11 -17 13
-36 5 -14 -5 -20 -10 -14 -10 5 -1 18 -7 27 -13 15 -11 10 -13 -35 -16 -41 -2
-49 0 -38 9 13 9 13 10 0 6 -10 -2 -14 -13 -12 -30 2 -19 -1 -27 -11 -27 -17
0 -27 -21 -27 -56 0 -17 -6 -24 -20 -24 -21 0 -27 15 -10 25 6 4 10 12 9 18
-3 26 2 35 22 40 17 5 19 9 9 26 -6 12 -8 21 -4 21 3 0 1 7 -6 15 -7 8 -19 15
-27 15 -13 0 -13 -2 -2 -16 12 -15 11 -16 -10 -9 -15 5 -26 3 -31 -5 -5 -8
-15 -10 -26 -6 -16 6 -15 10 14 32 38 30 42 54 9 54 -18 0 -23 -5 -22 -27 0
-23 -6 -30 -39 -40 -41 -14 -66 -5 -66 23 0 8 -9 14 -20 14 -11 0 -20 -4 -20
-8 0 -11 36 -49 52 -55 8 -2 9 -8 4 -13 -5 -5 -10 -4 -13 2 -7 21 -43 3 -43
-21 0 -17 -7 -24 -31 -29 -18 -3 -37 -13 -44 -23 -7 -9 -17 -13 -23 -9 -17 10
-15 26 3 26 8 0 15 5 15 10 0 6 -8 10 -17 10 -13 0 -14 3 -5 12 17 17 15 38
-3 38 -8 0 -15 -4 -15 -10 0 -5 -7 -10 -15 -10 -8 0 -15 7 -15 15 0 18 -24 30
-40 20 -8 -5 -6 -14 5 -31 14 -22 12 -28 -7 -25 -5 0 -8 -6 -8 -14 0 -8 -6
-15 -13 -15 -16 0 -47 32 -47 48 0 7 -7 12 -15 12 -8 0 -15 -8 -15 -17 0 -10
-4 -25 -9 -32 -7 -10 -9 0 -8 32 2 44 4 47 25 42 20 -5 21 -4 10 14 -18 30 1
40 23 12 11 -13 21 -22 22 -20 1 2 11 15 22 28 11 14 15 21 8 18 -6 -4 -14 -3
-18 3 -3 5 -17 7 -31 4 -15 -4 -24 -2 -24 5 0 9 -5 9 -20 1 -11 -6 -20 -17
-20 -25 0 -21 -21 -30 -32 -14 -7 11 -11 11 -15 1 -6 -15 -23 -6 -23 13 0 8
17 19 40 25 22 6 40 13 40 16 0 3 -9 14 -20 26 -16 17 -20 18 -20 6 0 -9 -9
-18 -21 -21 -15 -4 -22 1 -29 17 -5 13 -16 26 -26 30 -13 5 -14 10 -6 18 8 8
15 8 26 -1 8 -7 24 -10 36 -6 25 8 78 -14 84 -35 2 -8 4 -4 5 10 1 15 -7 30
-19 38 -11 7 -20 19 -20 27 0 18 -14 19 -42 4 -15 -8 -19 -8 -14 0 4 7 -1 11
-13 11 -12 0 -20 -6 -18 -12 1 -9 -9 -12 -32 -11 -23 1 -30 -2 -23 -9 7 -7 7
-19 1 -36 -10 -25 -4 -60 8 -49 3 4 14 -3 24 -15 16 -17 17 -24 6 -37 -19 -25
-30 -31 -57 -30 -22 0 -20 2 13 16 20 8 37 19 37 24 0 14 -18 11 -23 -3 -2 -7
-8 -9 -13 -5 -5 4 -2 12 6 17 23 14 4 23 -35 16 -35 -7 -46 -21 -23 -28 9 -3
8 -10 -3 -24 -10 -14 -24 -19 -47 -18 -21 1 -36 -4 -39 -12 -3 -8 -9 -11 -14
-8 -5 3 -7 10 -4 15 4 5 -7 6 -24 3 -26 -6 -29 -4 -24 14 2 11 0 23 -6 26 -6
4 -11 2 -11 -4 0 -6 -5 -8 -11 -5 -6 5 -3 13 10 22 12 8 19 18 16 23 -9 14 17
71 37 79 10 4 -10 7 -49 8 -38 1 -63 -1 -57 -3 14 -6 6 -44 -9 -44 -6 0 -19 7
-28 16 -17 16 -18 18 -2 44 15 27 18 27 39 13 13 -8 28 -12 34 -8 15 9 2 25
-21 25 -10 0 -19 7 -19 15 0 8 -4 15 -10 15 -5 0 -10 -4 -10 -9 0 -5 -7 -12
-16 -15 -12 -4 -15 -2 -10 9 4 10 -1 15 -14 15 -11 0 -20 -5 -20 -11 0 -15
-22 -34 -40 -34 -8 0 -14 -6 -12 -13 7 -36 -39 -69 -52 -36 -4 10 -2 13 6 8 8
-5 9 5 4 34 -4 30 -3 42 6 42 7 0 3 7 -9 15 -27 19 -53 10 -46 -16 3 -10 0
-19 -6 -19 -6 0 -11 -7 -11 -15 0 -8 5 -15 10 -15 6 0 10 -7 10 -15 0 -8 5
-15 10 -15 6 0 10 -7 10 -16 0 -12 -6 -15 -25 -10 -30 8 -54 -2 -34 -14 6 -5
13 -25 13 -45 1 -20 8 -40 15 -45 9 -5 14 -23 13 -44 -1 -20 2 -36 6 -36 4 0
8 -50 9 -111 1 -74 6 -116 15 -127 7 -9 8 -13 2 -9 -6 3 -16 -5 -22 -18 -7
-15 -8 -25 -2 -25 6 0 10 -9 10 -20 0 -11 7 -20 16 -20 10 0 14 -7 12 -22 -3
-20 2 -23 32 -24 19 -1 72 -6 118 -11 45 -5 82 -5 82 -1 0 5 16 6 36 4 20 -3
47 -1 60 4 18 7 26 5 34 -8 9 -15 10 -15 16 6 3 12 11 22 16 22 6 0 8 -7 4
-15 -4 -11 2 -15 24 -15 16 0 32 -5 36 -11 3 -6 15 -9 25 -6 10 3 26 -1 36 -8
10 -7 33 -11 53 -9 28 4 31 2 15 -6 -15 -7 -1 -9 55 -8 41 1 78 7 83 13 5 6
12 5 20 -5 6 -8 19 -15 27 -15 8 0 14 -5 13 -11 -1 -6 3 -11 10 -12 42 -4 74
-19 99 -44 15 -16 28 -33 28 -37 0 -10 30 -25 45 -23 6 1 15 -8 20 -20 6 -12
28 -31 50 -43 22 -11 43 -24 46 -29 6 -8 26 -22 130 -90 24 -15 56 -40 72 -54
15 -14 27 -22 27 -16 0 5 9 -4 20 -21 11 -16 20 -26 20 -20 0 5 11 -2 25 -17
14 -15 45 -36 71 -47 25 -11 65 -34 90 -51 25 -16 49 -30 54 -30 5 0 13 -6 17
-12 4 -7 26 -22 48 -32 57 -28 134 -84 162 -117 14 -16 29 -29 35 -29 5 0 15
-6 22 -12 7 -7 30 -26 50 -43 21 -16 47 -38 58 -47 12 -10 25 -18 30 -18 12 0
10 1069 -3 1170 -16 137 -67 310 -90 310 -12 0 -1 -48 17 -77 13 -21 12 -22
-19 -21 -17 1 -26 3 -19 5 6 3 12 9 12 15 0 5 -9 6 -21 3 -17 -6 -20 -3 -17
12 2 11 11 17 22 15 11 -2 17 2 14 10 -7 19 -78 19 -78 0 0 -8 -3 -13 -6 -9
-11 11 7 45 26 50 11 3 20 10 20 16 0 18 -31 25 -41 10 -6 -11 -11 -11 -21 -1
-9 9 -8 16 8 31 10 11 25 27 32 36 17 20 6 59 -15 51 -11 -4 -13 -2 -10 9 7
16 -8 30 -17 16 -3 -5 -22 -12 -43 -16 -27 -5 -33 -9 -22 -16 11 -7 11 -9 1
-9 -23 0 -7 -23 16 -25 31 -2 37 -12 12 -20 -13 -4 -19 -12 -16 -21 3 -8 1
-14 -5 -14 -5 0 -13 -8 -16 -17 -7 -18 -39 -53 -49 -53 -4 0 -2 6 3 13 6 6 13
24 17 40 3 15 11 27 16 27 6 0 10 5 10 11 0 8 -4 8 -13 1 -8 -7 -18 -7 -27 -2
-12 7 -11 12 4 28 17 19 16 21 -3 34 -21 15 -14 43 11 43 7 0 15 11 16 25 2
14 7 29 12 34 5 5 -1 24 -13 42 -25 39 -52 46 -42 12z"/>
<path d="M1830 3673 c-107 -10 -124 -15 -152 -45 -33 -36 -35 -60 -8 -116 24
-49 68 -72 137 -72 50 0 117 25 108 40 -3 5 -12 10 -20 10 -17 0 -29 30 -16
43 5 5 16 5 27 -1 23 -11 82 11 90 33 4 8 -1 26 -10 40 -9 13 -16 31 -16 39 0
9 -18 18 -50 25 -28 6 -52 10 -53 9 -1 0 -18 -3 -37 -5z"/>
<path d="M1336 3600 c-25 -5 -46 -17 -59 -34 -10 -14 -25 -26 -33 -26 -15 0
-17 -6 -14 -65 2 -42 12 -55 44 -55 10 0 31 -11 48 -25 35 -29 76 -32 158 -10
76 20 99 49 99 123 -1 87 -20 102 -123 101 -45 -1 -99 -5 -120 -9z"/>
<path d="M180 3552 c0 -10 -12 -22 -30 -29 -20 -8 -30 -18 -30 -32 0 -29 -9
-26 -51 14 -36 33 -37 34 -43 12 -3 -12 -11 -68 -18 -125 -11 -97 -11 -103 8
-117 17 -13 17 -14 2 -15 -10 0 -18 -6 -18 -14 0 -8 17 -15 50 -19 28 -3 56
-10 63 -14 6 -4 70 -7 140 -5 106 2 129 -1 133 -13 8 -19 24 -19 24 0 0 21 17
19 30 -5 7 -13 21 -20 40 -20 17 0 30 -4 30 -10 0 -5 -16 -10 -35 -10 -19 0
-35 -4 -35 -10 0 -8 21 -8 95 -1 l20 2 -20 9 c-19 8 -19 9 2 9 26 1 58 44 49
66 -4 12 -23 15 -85 15 -82 0 -102 8 -76 30 20 16 19 30 -2 30 -15 0 -15 1 0
18 21 23 22 46 2 62 -9 8 -12 22 -8 42 5 24 3 30 -8 26 -9 -3 -13 -17 -12 -36
2 -19 -3 -32 -12 -36 -18 -7 -20 -37 -3 -54 20 -20 -4 -31 -55 -25 -46 5 -47
6 -31 24 15 17 15 23 4 47 -7 15 -12 40 -11 55 2 23 -1 28 -16 25 -14 -3 -17
-12 -15 -36 1 -18 -2 -32 -8 -32 -13 0 -13 -47 0 -55 21 -13 8 -25 -28 -25
-37 0 -37 1 -60 64 -27 80 -27 80 3 94 19 9 25 19 25 42 0 16 5 30 10 30 6 0
10 9 10 20 0 11 -7 20 -15 20 -8 0 -15 -8 -15 -18z"/>
<path d="M1029 3282 c-9 -4 -15 -17 -14 -32 1 -14 -5 -30 -14 -37 -14 -10 -12
-12 14 -18 59 -13 59 -20 3 -23 -53 -3 -58 -5 -58 -26 0 -12 11 -32 25 -44 27
-23 33 -42 13 -42 -6 0 -20 -7 -30 -17 -24 -22 -32 -12 -16 22 11 24 10 29 -6
40 -11 8 -16 21 -12 32 7 23 -8 48 -24 38 -7 -4 -10 -19 -6 -35 4 -20 1 -30
-11 -34 -12 -5 -14 -15 -10 -40 5 -33 5 -34 -35 -38 -39 -4 -58 5 -38 17 13 8
13 52 0 60 -6 4 -9 18 -8 33 2 18 -2 27 -14 30 -15 3 -18 -4 -18 -32 0 -20 -4
-36 -10 -36 -14 0 -13 -43 2 -58 9 -9 -3 -12 -57 -13 -39 -1 -83 -4 -100 -8
-26 -6 -27 -8 -11 -14 18 -7 18 -8 2 -20 -10 -7 -16 -22 -14 -33 3 -17 -2 -19
-40 -17 -29 1 -42 -2 -42 -11 0 -10 14 -14 48 -13 26 0 57 -3 68 -7 14 -4 27
-1 37 9 9 9 33 15 60 15 42 0 45 -2 51 -32 5 -24 2 -36 -9 -44 -23 -17 -19
-60 8 -79 22 -16 22 -16 -13 -13 -19 2 -35 8 -36 13 0 6 -3 17 -7 25 -3 8 -7
24 -9 35 -2 12 -11 20 -23 20 -50 1 -78 -71 -33 -83 21 -5 21 -6 2 -13 -37
-15 -73 -10 -84 12 -8 14 -8 24 -1 33 6 6 8 22 4 35 -4 17 -1 24 18 29 23 6
23 6 -6 13 -48 11 -194 10 -167 -1 12 -5 22 -16 22 -23 0 -16 -31 -47 -47 -47
-6 0 -24 -14 -41 -31 -21 -21 -36 -29 -48 -25 -12 5 -15 2 -10 -11 8 -20 -40
-73 -66 -73 -22 0 -23 13 -4 30 8 6 20 27 26 45 6 19 19 35 31 38 26 7 20 31
-9 35 -26 4 -30 22 -4 22 16 1 16 2 -1 15 -23 17 -49 9 -45 -14 4 -19 -30 -61
-48 -61 -7 0 -17 8 -23 18 -9 15 -11 15 -18 -6 -8 -21 -10 -22 -22 -8 -8 9
-19 16 -26 16 -21 0 -38 46 -31 84 5 24 3 36 -5 36 -6 0 -8 7 -5 15 17 43 15
47 -8 20 l-25 -29 0 -243 c0 -211 2 -243 15 -243 8 0 12 5 9 10 -3 6 3 14 15
18 21 8 21 8 -5 32 -14 13 -25 31 -25 39 1 10 18 -3 45 -33 24 -27 41 -55 38
-62 -6 -16 13 -19 23 -3 3 6 17 8 31 4 l25 -6 -21 27 c-26 33 -26 49 -1 81 33
42 17 63 -17 23 -20 -23 -42 -25 -68 -6 -18 13 -18 15 -1 50 10 21 24 40 32
43 19 7 18 19 -2 27 -10 4 -22 -1 -29 -11 -18 -24 -30 -10 -15 16 9 17 8 21
-5 21 -8 0 -15 5 -15 10 0 6 7 10 15 10 18 0 19 12 3 28 -20 20 0 26 26 8 37
-24 76 -20 108 11 22 21 28 23 28 10 0 -10 -9 -25 -19 -34 -11 -9 -17 -22 -14
-30 3 -9 0 -14 -8 -13 -37 6 -47 0 -41 -22 3 -13 10 -26 15 -29 5 -4 10 -17
11 -30 0 -12 6 -24 13 -26 7 -3 9 3 6 16 -5 19 -1 21 35 21 30 0 51 8 84 33
l43 33 121 -2 c66 -1 130 -4 141 -8 12 -4 24 -2 28 4 3 5 1 10 -5 10 -6 0 -8
5 -5 10 9 15 35 12 29 -3 -2 -7 7 -26 21 -41 19 -20 25 -37 23 -60 -3 -29 -6
-31 -48 -34 -36 -3 -43 -1 -32 9 18 19 16 53 -4 45 -9 -3 -19 -6 -22 -6 -4 0
-1 -4 7 -9 10 -7 6 -13 -17 -27 -17 -10 -29 -21 -26 -26 3 -4 -2 -5 -10 -2
-19 7 -19 6 -6 38 12 33 2 33 -29 1 -13 -14 -28 -25 -35 -25 -6 0 -3 5 7 11
22 13 22 29 -1 29 -10 0 -24 6 -31 13 -11 10 -12 8 -7 -8 5 -16 1 -20 -19 -20
-17 0 -25 6 -25 18 0 20 -16 23 -24 5 -3 -9 -8 -8 -16 4 -16 26 -48 4 -42 -28
5 -26 -22 -44 -39 -27 -5 5 -23 7 -40 5 -24 -4 -30 -9 -26 -23 3 -10 0 -20 -7
-22 -6 -3 -3 -8 8 -12 11 -5 26 -3 37 3 11 7 20 8 24 2 3 -5 -4 -14 -16 -21
-16 -8 -18 -13 -9 -19 6 -4 10 -15 8 -25 -4 -25 -28 -31 -28 -8 0 24 -19 43
-42 43 -14 0 -13 -4 7 -26 14 -15 25 -31 25 -35 0 -5 15 -9 34 -9 19 0 38 -5
42 -11 5 -8 -17 -11 -77 -9 -108 4 -129 2 -129 -10 0 -5 10 -10 23 -10 12 -1
40 -16 61 -35 34 -31 37 -35 18 -35 -13 0 -22 -6 -22 -15 0 -10 10 -15 34 -15
19 0 38 -4 41 -10 3 -5 33 -10 66 -10 33 0 59 -4 59 -10 0 -6 -40 -10 -99 -10
-79 0 -100 -3 -105 -15 -3 -8 -10 -15 -16 -15 -5 0 -10 7 -10 15 0 12 -14 15
-65 15 l-65 0 0 -261 0 -261 161 7 c132 6 163 5 170 -6 16 -26 9 -29 -78 -29
-49 0 -125 -3 -171 -7 l-84 -6 5 -426 c4 -381 6 -435 24 -516 92 -409 388
-675 818 -735 42 -6 530 -10 1219 -10 l1148 0 -14 22 c-9 14 -28 24 -46 26
-28 3 -31 7 -34 40 -2 29 -8 37 -28 42 -84 19 19 145 184 224 52 26 98 46 103
46 5 0 24 -15 43 -33 19 -19 71 -57 115 -85 112 -71 129 -91 120 -138 -6 -35
-28 -63 -65 -84 -8 -5 -12 -11 -9 -15 11 -11 144 41 225 88 258 150 409 386
454 712 5 39 10 339 10 677 0 597 0 608 -20 620 -11 7 -20 18 -20 23 0 17
-126 134 -152 140 -12 4 -41 28 -63 55 -22 27 -43 46 -47 44 -4 -3 -16 4 -27
15 -11 11 -22 17 -25 14 -2 -3 -21 10 -40 29 -30 29 -149 97 -173 99 -5 0 -11
7 -16 14 -4 8 -13 12 -21 9 -7 -3 -19 2 -26 11 -7 8 -18 15 -25 15 -6 0 -17
11 -24 24 -7 13 -24 30 -37 37 -13 7 -24 18 -24 24 0 12 -48 51 -95 75 -45 24
-75 42 -119 73 -21 15 -52 27 -67 27 -22 0 -30 6 -35 25 -5 20 -9 23 -20 15
-9 -8 -18 -8 -33 0 -26 13 -29 42 -3 34 16 -5 16 -5 0 9 -10 8 -18 21 -18 29
0 18 -31 48 -50 48 -7 0 -35 14 -60 30 -44 28 -57 31 -154 35 -58 2 -106 0
-106 -4 0 -5 20 -15 45 -22 25 -7 45 -19 45 -26 0 -7 4 -13 9 -13 5 0 8 -11 7
-26 -1 -17 -5 -24 -16 -20 -74 24 -116 41 -120 46 -3 4 -15 10 -27 14 -13 4
-23 12 -23 17 0 5 -9 9 -19 9 -11 0 -21 3 -23 8 -6 14 -69 53 -110 68 -22 8
-71 14 -109 14 -60 0 -68 -2 -74 -21 -7 -21 -29 -22 -79 -3 -15 6 -17 4 -11
-15 6 -20 5 -22 -13 -12 -20 10 -39 43 -23 38 5 -1 11 3 13 8 1 6 -12 11 -30
13 -40 4 -41 32 -2 43 17 5 19 7 7 8 -10 1 -16 5 -13 10 3 4 -6 6 -21 3 -18
-3 -24 -1 -19 7 4 6 3 11 -2 11 -11 0 -42 -83 -42 -111 0 -10 -16 -34 -35 -54
-35 -34 -37 -35 -65 -20 -18 9 -31 11 -35 5 -3 -6 -15 -10 -26 -10 -15 0 -19
7 -19 36 0 24 -6 41 -17 50 -24 17 -7 32 17 16 29 -18 24 3 -6 27 -15 12 -41
21 -58 21 -30 0 -30 0 -8 -16 31 -22 27 -34 -10 -34 -48 0 -63 -12 -49 -39 11
-20 10 -21 -34 -21 -25 0 -45 5 -45 10 0 6 7 10 15 10 15 0 19 10 16 42 -1 9
3 19 9 23 5 3 10 11 10 17 0 7 -22 8 -67 3 -38 -5 -93 -9 -123 -9 -54 -1 -55
-1 -60 31 -6 37 -14 34 -55 -21 -16 -21 -49 -48 -74 -60 -36 -17 -45 -27 -44
-44 2 -19 -2 -22 -36 -22 -34 0 -38 -3 -34 -20 3 -11 1 -20 -5 -20 -15 0 -43
30 -37 40 3 4 -2 11 -11 14 -13 5 -14 2 -8 -11 29 -67 7 -157 -59 -235 -67
-80 -70 -77 -62 65 6 106 5 125 -9 136 -22 18 -20 31 9 61 l25 26 -26 49 c-14
27 -27 61 -29 75 -2 26 -19 34 -46 22z m874 -222 c10 0 17 -8 17 -19 0 -11 5
-23 10 -26 6 -4 4 -12 -5 -21 -9 -10 -13 -24 -9 -40 5 -18 2 -24 -10 -24 -9 0
-16 -7 -16 -15 0 -8 -18 -27 -40 -41 -35 -23 -53 -27 -145 -31 -90 -5 -108 -3
-134 13 -16 11 -30 22 -30 27 -1 4 -1 16 -1 27 0 11 -8 24 -17 27 -10 4 -26
16 -35 28 -16 19 -16 21 10 32 36 16 55 16 49 -1 -7 -17 28 -51 66 -65 62 -24
160 -3 199 42 34 38 16 76 -26 55 -23 -12 -43 4 -24 20 15 12 73 21 103 16 11
-2 28 -4 38 -4z m-1573 -570 c16 -16 39 -34 50 -40 11 -6 20 -17 20 -25 0 -20
15 -26 41 -16 13 4 31 5 39 0 8 -4 23 -10 32 -13 11 -3 15 -11 11 -22 -4 -12
-1 -15 18 -12 20 2 24 8 21 34 -3 26 2 34 25 46 15 8 42 23 60 34 68 40 50 -7
-37 -96 l-51 -52 -109 7 c-78 5 -110 4 -110 -4 0 -7 -23 -11 -60 -11 -62 0
-78 13 -37 30 12 5 32 18 45 29 l23 20 -20 47 c-16 36 -18 50 -10 60 15 18 14
19 49 -16z m-8 -385 c-2 -11 -3 -51 -3 -90 1 -44 -5 -79 -14 -95 -11 -19 -14
-21 -15 -7 0 9 -4 17 -9 17 -15 0 -26 -23 -14 -27 6 -2 9 -13 6 -24 -5 -18
-13 -19 -91 -17 -51 2 -87 7 -89 14 -6 18 49 74 73 74 12 0 27 7 34 15 7 8 22
15 34 15 14 0 27 12 38 35 l18 35 -29 0 c-29 0 -41 15 -41 50 0 21 20 29 70
27 29 -2 34 -5 32 -22z"/>
<path d="M360 3115 c0 -8 5 -34 12 -58 6 -25 8 -52 3 -63 -4 -10 -7 -23 -6
-28 1 -4 -4 -14 -10 -22 -16 -20 -10 -24 50 -27 76 -5 81 19 5 27 -15 2 -30 9
-32 16 -3 9 3 11 24 6 16 -3 50 -9 75 -12 41 -6 47 -4 51 14 7 24 -13 32 -83
32 -43 0 -46 2 -44 24 2 14 6 30 10 35 3 6 -1 11 -10 11 -9 0 -13 5 -10 10 4
6 10 8 15 5 5 -3 11 -1 15 4 10 17 35 0 35 -24 0 -17 7 -24 31 -29 48 -9 49
-9 65 29 8 19 19 35 25 35 5 0 8 4 5 9 -3 5 -23 7 -44 5 -132 -13 -152 -13
-152 2 0 8 -7 14 -15 14 -8 0 -15 -7 -15 -15z"/>
</g>
</svg>
